<svg id="图层_1" data-name="图层 1" xmlns="http://www.w3.org/2000/svg" xmlns:xlink="http://www.w3.org/1999/xlink" viewBox="0 0 500 500"><defs><style>.cls-1{fill:none;}.cls-2{clip-path:url(#clip-path);}.cls-3{fill:url(#未命名的渐变_33);}.cls-4{clip-path:url(#clip-path-2);}</style><clipPath id="clip-path"><path class="cls-1" d="M392,273.94a316.65,316.65,0,0,0-46.89-3.48h0c-118.62,0-221.89,65.71-275.4,162.71h99a232,232,0,0,1,176.4-81h0a231.91,231.91,0,0,1,85.18,16.09Z"/></clipPath><linearGradient id="未命名的渐变_33" x1="112.26" y1="173.44" x2="414.78" y2="475.96" gradientUnits="userSpaceOnUse"><stop offset="0" stop-color="#3a72ef"/><stop offset="1" stop-color="#61d6ff"/></linearGradient><clipPath id="clip-path-2"><path class="cls-1" d="M231,260.51,264,177.8l26.16,67.65a346.28,346.28,0,0,1,54.91-4.39q17.33,0,34.23,1.7L307.93,66.83H218.87L110.09,334A343.47,343.47,0,0,1,231,260.51Z"/></clipPath></defs><g class="cls-2"><polygon class="cls-3" points="218.87 66.83 307.93 66.83 457.57 433.17 69.71 433.17 218.87 66.83"/></g><g class="cls-4"><polygon class="cls-3" points="218.87 66.83 307.93 66.83 457.57 433.17 69.71 433.17 218.87 66.83"/></g></svg>